<mxfile host="app.diagrams.net" modified="2024-10-03T08:58:47.333Z" agent="Mozilla/5.0 (Windows NT 10.0; Win64; x64) AppleWebKit/537.36 (KHTML, like Gecko) Chrome/129.0.0.0 Safari/537.36" etag="PKTadqKGwDsl9qertIy5" version="22.1.21" type="github">
  <diagram name="페이지-1" id="tTYqb5y18iZsYa7C_b1i">
    <mxGraphModel dx="1392" dy="733" grid="1" gridSize="10" guides="1" tooltips="1" connect="1" arrows="1" fold="1" page="1" pageScale="1" pageWidth="583" pageHeight="827" math="0" shadow="0">
      <root>
        <mxCell id="0" />
        <mxCell id="1" parent="0" />
        <mxCell id="1vyDjmdq49UkAJk-4-0W-1" value="고객" style="whiteSpace=wrap;html=1;align=center;" vertex="1" parent="1">
          <mxGeometry x="790" y="610" width="100" height="40" as="geometry" />
        </mxCell>
        <mxCell id="1vyDjmdq49UkAJk-4-0W-2" value="고객명" style="ellipse;whiteSpace=wrap;html=1;align=center;" vertex="1" parent="1">
          <mxGeometry x="620" y="525" width="100" height="40" as="geometry" />
        </mxCell>
        <mxCell id="1vyDjmdq49UkAJk-4-0W-3" value="" style="endArrow=none;html=1;rounded=0;exitX=0.5;exitY=1;exitDx=0;exitDy=0;" edge="1" parent="1" source="1vyDjmdq49UkAJk-4-0W-2" target="1vyDjmdq49UkAJk-4-0W-1">
          <mxGeometry relative="1" as="geometry">
            <mxPoint x="720" y="700" as="sourcePoint" />
            <mxPoint x="840" y="630" as="targetPoint" />
          </mxGeometry>
        </mxCell>
        <mxCell id="1vyDjmdq49UkAJk-4-0W-6" value="전화번호" style="ellipse;whiteSpace=wrap;html=1;align=center;fontStyle=4;" vertex="1" parent="1">
          <mxGeometry x="720" y="480" width="100" height="40" as="geometry" />
        </mxCell>
        <mxCell id="1vyDjmdq49UkAJk-4-0W-7" value="" style="endArrow=none;html=1;rounded=0;exitX=0.5;exitY=1;exitDx=0;exitDy=0;" edge="1" parent="1" source="1vyDjmdq49UkAJk-4-0W-6" target="1vyDjmdq49UkAJk-4-0W-1">
          <mxGeometry relative="1" as="geometry">
            <mxPoint x="770" y="550" as="sourcePoint" />
            <mxPoint x="832" y="620" as="targetPoint" />
          </mxGeometry>
        </mxCell>
        <mxCell id="1vyDjmdq49UkAJk-4-0W-8" value="이메일" style="ellipse;whiteSpace=wrap;html=1;align=center;fontStyle=4;" vertex="1" parent="1">
          <mxGeometry x="840" y="480" width="100" height="40" as="geometry" />
        </mxCell>
        <mxCell id="1vyDjmdq49UkAJk-4-0W-9" value="" style="endArrow=none;html=1;rounded=0;" edge="1" parent="1" source="1vyDjmdq49UkAJk-4-0W-8" target="1vyDjmdq49UkAJk-4-0W-1">
          <mxGeometry relative="1" as="geometry">
            <mxPoint x="910" y="550" as="sourcePoint" />
            <mxPoint x="863" y="620" as="targetPoint" />
          </mxGeometry>
        </mxCell>
        <mxCell id="1vyDjmdq49UkAJk-4-0W-10" value="고객코드" style="ellipse;whiteSpace=wrap;html=1;align=center;fontStyle=4;" vertex="1" parent="1">
          <mxGeometry x="940" y="525" width="100" height="40" as="geometry" />
        </mxCell>
        <mxCell id="1vyDjmdq49UkAJk-4-0W-11" value="" style="endArrow=none;html=1;rounded=0;" edge="1" parent="1" source="1vyDjmdq49UkAJk-4-0W-10" target="1vyDjmdq49UkAJk-4-0W-1">
          <mxGeometry relative="1" as="geometry">
            <mxPoint x="891" y="555" as="sourcePoint" />
            <mxPoint x="850" y="630" as="targetPoint" />
          </mxGeometry>
        </mxCell>
        <mxCell id="1vyDjmdq49UkAJk-4-0W-12" value="주소" style="ellipse;whiteSpace=wrap;html=1;align=center;" vertex="1" parent="1">
          <mxGeometry x="520" y="610" width="100" height="40" as="geometry" />
        </mxCell>
        <mxCell id="1vyDjmdq49UkAJk-4-0W-13" value="" style="endArrow=none;html=1;rounded=0;entryX=0;entryY=0.5;entryDx=0;entryDy=0;" edge="1" parent="1" source="1vyDjmdq49UkAJk-4-0W-12" target="1vyDjmdq49UkAJk-4-0W-1">
          <mxGeometry relative="1" as="geometry">
            <mxPoint x="680" y="615" as="sourcePoint" />
            <mxPoint x="800" y="633" as="targetPoint" />
          </mxGeometry>
        </mxCell>
        <mxCell id="1vyDjmdq49UkAJk-4-0W-14" value="기본주소" style="ellipse;whiteSpace=wrap;html=1;align=center;" vertex="1" parent="1">
          <mxGeometry x="413" y="550" width="100" height="40" as="geometry" />
        </mxCell>
        <mxCell id="1vyDjmdq49UkAJk-4-0W-15" value="상세주소" style="ellipse;whiteSpace=wrap;html=1;align=center;" vertex="1" parent="1">
          <mxGeometry x="414" y="670" width="100" height="40" as="geometry" />
        </mxCell>
        <mxCell id="1vyDjmdq49UkAJk-4-0W-16" value="" style="endArrow=none;html=1;rounded=0;exitX=1;exitY=1;exitDx=0;exitDy=0;entryX=0;entryY=0;entryDx=0;entryDy=0;" edge="1" parent="1" source="1vyDjmdq49UkAJk-4-0W-14" target="1vyDjmdq49UkAJk-4-0W-12">
          <mxGeometry relative="1" as="geometry">
            <mxPoint x="420" y="634" as="sourcePoint" />
            <mxPoint x="590" y="626" as="targetPoint" />
          </mxGeometry>
        </mxCell>
        <mxCell id="1vyDjmdq49UkAJk-4-0W-17" value="" style="endArrow=none;html=1;rounded=0;entryX=0;entryY=1;entryDx=0;entryDy=0;exitX=1;exitY=0;exitDx=0;exitDy=0;" edge="1" parent="1" source="1vyDjmdq49UkAJk-4-0W-15" target="1vyDjmdq49UkAJk-4-0W-12">
          <mxGeometry relative="1" as="geometry">
            <mxPoint x="410" y="680" as="sourcePoint" />
            <mxPoint x="580" y="672" as="targetPoint" />
          </mxGeometry>
        </mxCell>
        <mxCell id="1vyDjmdq49UkAJk-4-0W-18" value="가입일" style="ellipse;whiteSpace=wrap;html=1;align=center;" vertex="1" parent="1">
          <mxGeometry x="620" y="710" width="100" height="40" as="geometry" />
        </mxCell>
        <mxCell id="1vyDjmdq49UkAJk-4-0W-19" value="" style="endArrow=none;html=1;rounded=0;entryX=0;entryY=1;entryDx=0;entryDy=0;exitX=1;exitY=0;exitDx=0;exitDy=0;" edge="1" parent="1" source="1vyDjmdq49UkAJk-4-0W-18" target="1vyDjmdq49UkAJk-4-0W-1">
          <mxGeometry relative="1" as="geometry">
            <mxPoint x="630" y="648" as="sourcePoint" />
            <mxPoint x="800" y="640" as="targetPoint" />
          </mxGeometry>
        </mxCell>
        <mxCell id="1vyDjmdq49UkAJk-4-0W-22" value="지역&lt;br&gt;" style="whiteSpace=wrap;html=1;align=center;" vertex="1" parent="1">
          <mxGeometry x="790" y="990" width="100" height="40" as="geometry" />
        </mxCell>
        <mxCell id="1vyDjmdq49UkAJk-4-0W-23" value="지역명" style="ellipse;whiteSpace=wrap;html=1;align=center;" vertex="1" parent="1">
          <mxGeometry x="620" y="940" width="100" height="40" as="geometry" />
        </mxCell>
        <mxCell id="1vyDjmdq49UkAJk-4-0W-25" value="" style="endArrow=none;html=1;rounded=0;entryX=1;entryY=0.5;entryDx=0;entryDy=0;exitX=0;exitY=0;exitDx=0;exitDy=0;" edge="1" parent="1" source="1vyDjmdq49UkAJk-4-0W-22" target="1vyDjmdq49UkAJk-4-0W-23">
          <mxGeometry relative="1" as="geometry">
            <mxPoint x="740" y="980" as="sourcePoint" />
            <mxPoint x="740" y="880" as="targetPoint" />
          </mxGeometry>
        </mxCell>
        <mxCell id="1vyDjmdq49UkAJk-4-0W-26" value="" style="endArrow=none;html=1;rounded=0;entryX=0;entryY=1;entryDx=0;entryDy=0;exitX=1;exitY=0.5;exitDx=0;exitDy=0;" edge="1" parent="1" source="1vyDjmdq49UkAJk-4-0W-27" target="1vyDjmdq49UkAJk-4-0W-22">
          <mxGeometry relative="1" as="geometry">
            <mxPoint x="730" y="1030" as="sourcePoint" />
            <mxPoint x="750" y="890" as="targetPoint" />
          </mxGeometry>
        </mxCell>
        <mxCell id="1vyDjmdq49UkAJk-4-0W-27" value="전화번호" style="ellipse;whiteSpace=wrap;html=1;align=center;fontStyle=4;" vertex="1" parent="1">
          <mxGeometry x="620" y="1040" width="100" height="40" as="geometry" />
        </mxCell>
        <mxCell id="1vyDjmdq49UkAJk-4-0W-28" value="제품" style="whiteSpace=wrap;html=1;align=center;" vertex="1" parent="1">
          <mxGeometry x="1428" y="610" width="100" height="40" as="geometry" />
        </mxCell>
        <mxCell id="1vyDjmdq49UkAJk-4-0W-29" value="제품명" style="ellipse;whiteSpace=wrap;html=1;align=center;" vertex="1" parent="1">
          <mxGeometry x="1428" y="485" width="100" height="40" as="geometry" />
        </mxCell>
        <mxCell id="1vyDjmdq49UkAJk-4-0W-30" value="" style="endArrow=none;html=1;rounded=0;entryX=0.5;entryY=1;entryDx=0;entryDy=0;exitX=0.5;exitY=0;exitDx=0;exitDy=0;" edge="1" parent="1" source="1vyDjmdq49UkAJk-4-0W-28" target="1vyDjmdq49UkAJk-4-0W-29">
          <mxGeometry relative="1" as="geometry">
            <mxPoint x="1378" y="600" as="sourcePoint" />
            <mxPoint x="1378" y="500" as="targetPoint" />
          </mxGeometry>
        </mxCell>
        <mxCell id="1vyDjmdq49UkAJk-4-0W-31" value="" style="endArrow=none;html=1;rounded=0;entryX=0.25;entryY=0;entryDx=0;entryDy=0;exitX=1;exitY=1;exitDx=0;exitDy=0;" edge="1" parent="1" source="1vyDjmdq49UkAJk-4-0W-32" target="1vyDjmdq49UkAJk-4-0W-28">
          <mxGeometry relative="1" as="geometry">
            <mxPoint x="1368" y="650" as="sourcePoint" />
            <mxPoint x="1388" y="510" as="targetPoint" />
          </mxGeometry>
        </mxCell>
        <mxCell id="1vyDjmdq49UkAJk-4-0W-32" value="제품코드" style="ellipse;whiteSpace=wrap;html=1;align=center;fontStyle=4;" vertex="1" parent="1">
          <mxGeometry x="1297" y="490" width="100" height="40" as="geometry" />
        </mxCell>
        <mxCell id="1vyDjmdq49UkAJk-4-0W-34" value="제품구분" style="ellipse;whiteSpace=wrap;html=1;align=center;" vertex="1" parent="1">
          <mxGeometry x="1557" y="490" width="100" height="40" as="geometry" />
        </mxCell>
        <mxCell id="1vyDjmdq49UkAJk-4-0W-35" value="" style="endArrow=none;html=1;rounded=0;entryX=0;entryY=1;entryDx=0;entryDy=0;exitX=0.871;exitY=-0.006;exitDx=0;exitDy=0;exitPerimeter=0;" edge="1" parent="1" target="1vyDjmdq49UkAJk-4-0W-34" source="1vyDjmdq49UkAJk-4-0W-28">
          <mxGeometry relative="1" as="geometry">
            <mxPoint x="1507" y="550" as="sourcePoint" />
            <mxPoint x="1457" y="440" as="targetPoint" />
          </mxGeometry>
        </mxCell>
        <mxCell id="1vyDjmdq49UkAJk-4-0W-38" value="제품색상" style="ellipse;shape=doubleEllipse;margin=3;whiteSpace=wrap;html=1;align=center;" vertex="1" parent="1">
          <mxGeometry x="1617" y="660" width="100" height="40" as="geometry" />
        </mxCell>
        <mxCell id="1vyDjmdq49UkAJk-4-0W-41" value="가격" style="ellipse;whiteSpace=wrap;html=1;align=center;" vertex="1" parent="1">
          <mxGeometry x="1617" y="560" width="100" height="40" as="geometry" />
        </mxCell>
        <mxCell id="1vyDjmdq49UkAJk-4-0W-42" value="" style="endArrow=none;html=1;rounded=0;entryX=0;entryY=1;entryDx=0;entryDy=0;exitX=1;exitY=0.5;exitDx=0;exitDy=0;" edge="1" parent="1" target="1vyDjmdq49UkAJk-4-0W-41" source="1vyDjmdq49UkAJk-4-0W-28">
          <mxGeometry relative="1" as="geometry">
            <mxPoint x="1575" y="680" as="sourcePoint" />
            <mxPoint x="1517" y="510" as="targetPoint" />
          </mxGeometry>
        </mxCell>
        <mxCell id="1vyDjmdq49UkAJk-4-0W-43" value="" style="endArrow=none;html=1;rounded=0;entryX=0;entryY=0;entryDx=0;entryDy=0;exitX=1;exitY=0.5;exitDx=0;exitDy=0;" edge="1" parent="1" source="1vyDjmdq49UkAJk-4-0W-28" target="1vyDjmdq49UkAJk-4-0W-38">
          <mxGeometry relative="1" as="geometry">
            <mxPoint x="1538" y="640" as="sourcePoint" />
            <mxPoint x="1642" y="604" as="targetPoint" />
          </mxGeometry>
        </mxCell>
        <mxCell id="1vyDjmdq49UkAJk-4-0W-46" value="" style="endArrow=none;html=1;rounded=0;exitX=0;exitY=0.5;exitDx=0;exitDy=0;entryX=1;entryY=0.5;entryDx=0;entryDy=0;" edge="1" parent="1" source="1vyDjmdq49UkAJk-4-0W-55" target="1vyDjmdq49UkAJk-4-0W-1">
          <mxGeometry relative="1" as="geometry">
            <mxPoint x="994.6446609406726" y="675.8578643762692" as="sourcePoint" />
            <mxPoint x="960" y="650" as="targetPoint" />
          </mxGeometry>
        </mxCell>
        <mxCell id="1vyDjmdq49UkAJk-4-0W-63" value="N" style="edgeLabel;html=1;align=center;verticalAlign=middle;resizable=0;points=[];" vertex="1" connectable="0" parent="1vyDjmdq49UkAJk-4-0W-46">
          <mxGeometry x="-0.4423" y="1" relative="1" as="geometry">
            <mxPoint x="38" y="-21" as="offset" />
          </mxGeometry>
        </mxCell>
        <mxCell id="1vyDjmdq49UkAJk-4-0W-48" value="" style="endArrow=none;html=1;rounded=0;exitX=1;exitY=0.5;exitDx=0;exitDy=0;entryX=0;entryY=0.5;entryDx=0;entryDy=0;" edge="1" parent="1" source="1vyDjmdq49UkAJk-4-0W-55" target="1vyDjmdq49UkAJk-4-0W-28">
          <mxGeometry relative="1" as="geometry">
            <mxPoint x="1382.3553390593274" y="695.8578643762689" as="sourcePoint" />
            <mxPoint x="1370" y="630" as="targetPoint" />
          </mxGeometry>
        </mxCell>
        <mxCell id="1vyDjmdq49UkAJk-4-0W-65" value="M" style="edgeLabel;html=1;align=center;verticalAlign=middle;resizable=0;points=[];" vertex="1" connectable="0" parent="1vyDjmdq49UkAJk-4-0W-48">
          <mxGeometry x="-0.0406" y="-1" relative="1" as="geometry">
            <mxPoint x="-79" y="-21" as="offset" />
          </mxGeometry>
        </mxCell>
        <mxCell id="1vyDjmdq49UkAJk-4-0W-49" value="관리" style="shape=rhombus;perimeter=rhombusPerimeter;whiteSpace=wrap;html=1;align=center;" vertex="1" parent="1">
          <mxGeometry x="780" y="790" width="120" height="60" as="geometry" />
        </mxCell>
        <mxCell id="1vyDjmdq49UkAJk-4-0W-50" value="" style="endArrow=none;html=1;rounded=0;entryX=0.5;entryY=1;entryDx=0;entryDy=0;exitX=0.5;exitY=0;exitDx=0;exitDy=0;" edge="1" parent="1" source="1vyDjmdq49UkAJk-4-0W-49" target="1vyDjmdq49UkAJk-4-0W-1">
          <mxGeometry relative="1" as="geometry">
            <mxPoint x="715" y="726" as="sourcePoint" />
            <mxPoint x="800" y="660" as="targetPoint" />
          </mxGeometry>
        </mxCell>
        <mxCell id="1vyDjmdq49UkAJk-4-0W-52" value="N" style="edgeLabel;html=1;align=center;verticalAlign=middle;resizable=0;points=[];" vertex="1" connectable="0" parent="1vyDjmdq49UkAJk-4-0W-50">
          <mxGeometry x="-0.0127" y="-2" relative="1" as="geometry">
            <mxPoint x="-22" y="58" as="offset" />
          </mxGeometry>
        </mxCell>
        <mxCell id="1vyDjmdq49UkAJk-4-0W-51" value="" style="endArrow=none;html=1;rounded=0;entryX=0.5;entryY=1;entryDx=0;entryDy=0;exitX=0.5;exitY=0;exitDx=0;exitDy=0;" edge="1" parent="1" source="1vyDjmdq49UkAJk-4-0W-22" target="1vyDjmdq49UkAJk-4-0W-49">
          <mxGeometry relative="1" as="geometry">
            <mxPoint x="888.33" y="990" as="sourcePoint" />
            <mxPoint x="888.33" y="850" as="targetPoint" />
          </mxGeometry>
        </mxCell>
        <mxCell id="1vyDjmdq49UkAJk-4-0W-53" value="1" style="edgeLabel;html=1;align=center;verticalAlign=middle;resizable=0;points=[];" vertex="1" connectable="0" parent="1vyDjmdq49UkAJk-4-0W-51">
          <mxGeometry x="0.2349" y="-1" relative="1" as="geometry">
            <mxPoint x="-21" y="-43" as="offset" />
          </mxGeometry>
        </mxCell>
        <mxCell id="1vyDjmdq49UkAJk-4-0W-55" value="구매" style="shape=rhombus;perimeter=rhombusPerimeter;whiteSpace=wrap;html=1;align=center;" vertex="1" parent="1">
          <mxGeometry x="1100" y="600" width="120" height="60" as="geometry" />
        </mxCell>
        <mxCell id="1vyDjmdq49UkAJk-4-0W-57" value="구매번호" style="ellipse;whiteSpace=wrap;html=1;align=center;fontStyle=4;" vertex="1" parent="1">
          <mxGeometry x="1010" y="730" width="90" height="40" as="geometry" />
        </mxCell>
        <mxCell id="1vyDjmdq49UkAJk-4-0W-58" value="수량" style="ellipse;whiteSpace=wrap;html=1;align=center;" vertex="1" parent="1">
          <mxGeometry x="1115" y="730" width="90" height="40" as="geometry" />
        </mxCell>
        <mxCell id="1vyDjmdq49UkAJk-4-0W-59" value="구매일자" style="ellipse;whiteSpace=wrap;html=1;align=center;" vertex="1" parent="1">
          <mxGeometry x="1220" y="730" width="90" height="40" as="geometry" />
        </mxCell>
        <mxCell id="1vyDjmdq49UkAJk-4-0W-60" value="" style="endArrow=none;html=1;rounded=0;exitX=0.5;exitY=0;exitDx=0;exitDy=0;entryX=0.5;entryY=1;entryDx=0;entryDy=0;" edge="1" parent="1" source="1vyDjmdq49UkAJk-4-0W-57" target="1vyDjmdq49UkAJk-4-0W-55">
          <mxGeometry relative="1" as="geometry">
            <mxPoint x="1000" y="679.17" as="sourcePoint" />
            <mxPoint x="1160" y="679.17" as="targetPoint" />
          </mxGeometry>
        </mxCell>
        <mxCell id="1vyDjmdq49UkAJk-4-0W-61" value="" style="endArrow=none;html=1;rounded=0;entryX=0.5;entryY=0;entryDx=0;entryDy=0;exitX=0.5;exitY=1;exitDx=0;exitDy=0;" edge="1" parent="1" source="1vyDjmdq49UkAJk-4-0W-55" target="1vyDjmdq49UkAJk-4-0W-58">
          <mxGeometry relative="1" as="geometry">
            <mxPoint x="1010" y="689.17" as="sourcePoint" />
            <mxPoint x="1170" y="689.17" as="targetPoint" />
          </mxGeometry>
        </mxCell>
        <mxCell id="1vyDjmdq49UkAJk-4-0W-62" value="" style="endArrow=none;html=1;rounded=0;entryX=0.5;entryY=0;entryDx=0;entryDy=0;exitX=0.5;exitY=1;exitDx=0;exitDy=0;" edge="1" parent="1" source="1vyDjmdq49UkAJk-4-0W-55" target="1vyDjmdq49UkAJk-4-0W-59">
          <mxGeometry relative="1" as="geometry">
            <mxPoint x="1020" y="699.17" as="sourcePoint" />
            <mxPoint x="1180" y="699.17" as="targetPoint" />
          </mxGeometry>
        </mxCell>
      </root>
    </mxGraphModel>
  </diagram>
</mxfile>
